<svg width="402" height="178" viewBox="0 0 402 178" fill="none" xmlns="http://www.w3.org/2000/svg">
<path d="M244.994 62.4143L241.856 66.2896C232.871 55.1107 217.586 47.4245 201.001 47.4245C184.416 47.4245 169.131 55.1107 160.146 66.2884L157.008 62.4143C166.902 50.5886 183.122 42.592 201.001 42.592C218.88 42.592 235.1 50.5886 244.994 62.4143ZM161.208 41.6923C161.35 40.1571 160.928 39.1186 159.399 37.2458L150.635 26.4632L155.363 22.6229L164.909 34.3639C166.933 36.8575 167.764 39.3929 167.453 42.1156C167.112 45.1206 165.658 47.6334 163.008 49.7973C160.628 51.7209 158.173 52.6533 155.53 52.6296C155.214 52.6273 154.896 52.6104 154.575 52.581C151.846 52.3304 149.534 50.9995 147.504 48.5116L137.955 36.7683L142.682 32.9258L151.45 43.7028C152.972 45.5811 153.902 46.2076 155.431 46.3826C156.639 46.5248 158.006 46.0586 159.182 45.1036C160.363 44.143 161.102 42.9002 161.208 41.6923ZM192.666 16.8298L180.895 19.2172L181.713 23.2438L192.485 21.0584L193.624 26.6675L182.854 28.8541L183.181 30.4672C183.616 32.6063 184.233 32.8174 186.14 32.4302L195.451 30.5417L196.603 36.2163L187.032 38.1579C186.154 38.3352 185.325 38.4255 184.55 38.4266C183.026 38.4277 181.705 38.0868 180.604 37.4073C178.936 36.38 177.84 34.619 177.344 32.174L174.292 17.1413C174.15 16.4426 174.257 15.798 174.602 15.2754C174.949 14.755 175.501 14.4039 176.2 14.2628L191.516 11.1551L192.666 16.8298ZM218.237 21.1555L217.824 22.7437L228.448 25.4958L227.014 31.0271L216.392 28.2761L213.91 37.8904L210.405 36.9828C209.718 36.8045 209.185 36.4263 208.868 35.8879C208.553 35.3505 208.479 34.7014 208.658 34.0117L212.511 19.145C213.77 14.2922 217.311 12.3562 222.483 13.6961L231.92 16.14L230.47 21.7345L221.293 19.3572C219.413 18.8707 218.783 19.0479 218.237 21.1555ZM133.091 32.9348L129.852 28.9354C131.461 27.3268 133.134 25.7656 134.879 24.2597C153.008 8.61525 176.492 0 201.001 0C225.511 0 248.994 8.61525 267.122 24.2597C268.867 25.7656 270.542 27.3268 272.151 28.9354L268.911 32.9348C267.275 31.2788 265.565 29.6759 263.778 28.1328C246.577 13.2909 224.282 5.117 201.001 5.117C177.72 5.117 155.425 13.2909 138.224 28.1328C136.437 29.6759 134.728 31.2788 133.091 32.9348ZM244.18 52.7831L245.231 49.1573L240.709 45.7809L244.351 43.1733L246.459 44.7571L248.854 36.6837L234.958 45.6669L229.261 42.4452L251.058 28.3439C251.898 27.7998 253.048 27.3189 254.502 28.4387L255.434 29.1566C256.903 30.2877 256.693 31.5814 256.406 32.4573L249.171 57.3492L244.18 52.7831ZM147.255 164.307H147.387L146.55 176.582H112.086V176.455L115.11 172.792V139.624L112.086 135.961V135.831H145.136L145.648 146.503H145.522L141.022 141.682H125.525V152.416H135.104L139.025 149.074H139.156V161.673H139.025L135.104 158.329H125.525V170.669H141.6L147.255 164.307ZM146.966 113.904L150.5 117.567V117.697H136.294V117.567L139.827 113.904L141.565 80.7364L138.606 77.0733V76.9458H153.202L163.747 104.133L173.522 76.9458H187.925V77.0733L185.286 80.7364L187.732 113.904L191.073 117.567V117.697H173.777V117.567L177.764 113.904L175.964 88.3233L165.418 117.697H159.054L147.672 88.6438L146.966 113.904ZM106.177 163.795H106.308L104.763 176.582H72.421V176.39L75.445 172.792V139.624L72.421 135.961V135.831H89.655V135.961L85.8598 139.624V170.605H99.8123L106.177 163.795ZM71.6215 113.904V99.571H57.0264V113.904L59.985 117.567V117.697H43.5877V117.567L46.6106 113.904V80.7364L43.5877 77.0733V76.9458H59.985V77.0733L57.0264 80.7364V93.0779H71.6215V80.7364L68.663 77.0733V76.9458H85.0603V77.0733L82.0362 80.7364V113.904L85.0603 117.567V117.697H68.663V117.567L71.6215 113.904ZM330.416 164.307H330.547L329.71 176.582H295.245V176.455L298.269 172.792V139.624L295.245 135.961V135.831H328.296L328.809 146.503H328.681L324.181 141.682H308.684V152.416H318.263L322.185 149.074H322.317V161.673H322.185L318.263 158.329H308.684V170.669H324.76L330.416 164.307ZM166.717 160.32L172.376 144.127L177.196 160.32H166.717ZM179.127 135.831H165.302V135.961L167.683 139.624L155.146 172.792L151.928 176.455V176.582H165.56V176.455L162.408 172.792L164.596 166.429H179L180.864 172.792L177.52 176.455V176.582H194.944V176.455L191.599 172.792L179.127 135.831ZM36.0716 108.183H36.2003L35.6211 114.932C31.7648 117.824 26.1695 119.108 22.3742 119.108C8.22972 119.108 0 108.954 0 97.3833C0 85.6852 8.55267 75.5291 23.4684 75.5291C28.2924 75.5291 32.2108 76.4954 34.0142 77.2009L34.4659 90.0572H34.3338L28.0339 82.2772C26.427 81.8302 24.6259 81.6372 22.7604 81.6372C15.7514 81.6372 10.8653 87.4845 10.8653 96.4825C10.8653 103.812 16.2031 112.296 24.5627 112.296C28.0971 112.296 32.7935 110.753 36.0716 108.183ZM258.702 117.697H242.302V117.567L245.327 113.904V80.7364L242.302 77.0733V76.9458H258.702V77.0733L255.742 80.7364V113.904L258.702 117.567V117.697ZM222.732 157.366H239.897V157.494L236.684 161.16V178H236.552L231.474 173.693C227.167 176.841 222.539 178 217.457 178C205.821 178 198.361 168.355 198.361 156.723C198.361 142.84 208.071 134.42 221.765 134.42C226.331 134.42 230.832 135.253 234.561 137.183L234.946 148.365H234.819L228.388 141.424C226.396 140.718 223.952 140.526 221.638 140.526C213.28 140.526 209.227 147.274 209.227 155.308C209.227 162.7 213.023 171.506 220.223 171.506C223.244 171.506 225.494 170.284 226.781 168.809V161.16L222.732 157.494V157.366ZM212.089 82.8586H215.496C221.348 82.8586 224.5 85.4278 224.5 90.827C224.5 95.392 222.058 98.4771 216.398 98.4771C214.853 98.4771 213.376 98.2841 212.089 97.8992V82.8586ZM198.65 117.567V117.697H216.331V117.567L212.089 113.904V103.299C214.212 103.812 217.106 104.005 219.935 104.005C228.615 104.005 234.98 98.8 234.98 90.38C234.98 82.2772 229.644 76.9458 217.942 76.9458H198.65V77.0733L201.675 80.7364V113.904L198.65 117.567ZM289.561 112.682C280.879 112.682 277.921 101.177 277.921 94.0408C277.921 89.1563 279.978 81.9566 287.179 81.9566C296.184 81.9566 298.819 93.2077 298.819 100.276C298.819 106.767 295.795 112.682 289.561 112.682ZM309.751 97.4487C309.751 85.7506 301.389 75.5291 288.339 75.5291C276.506 75.5291 267.056 84.4649 267.056 96.7432C267.056 108.631 275.285 119.108 288.016 119.108C299.655 119.108 309.751 110.818 309.751 97.4487ZM274.418 135.831H287.342V135.961L284.386 139.624V163.151C284.386 174.206 278.792 178 267.794 178C255.707 178 250.052 173.947 250.052 162.831V139.624L247.027 135.961V135.831H263.81V135.961L260.466 139.624V162.831C260.466 169.641 263.745 171.185 269.147 171.185C274.484 171.185 277.763 169.513 277.763 162.831V139.624L274.418 135.961V135.831ZM345.804 140.546V138.367H347.265C348.019 138.367 348.814 138.526 348.814 139.405C348.814 140.497 348.001 140.546 347.097 140.546H345.804ZM349.929 139.464C349.929 138.072 349.104 137.456 347.434 137.456H344.74V144.526H345.804V141.46H347.047L348.906 144.526H350.097L348.1 141.41C349.132 141.277 349.929 140.73 349.929 139.464ZM347.104 146.101C344.302 146.101 342.109 143.925 342.109 140.969C342.109 138.072 344.302 135.883 347.104 135.883C349.878 135.883 352.075 138.072 352.075 140.969C352.075 143.925 349.878 146.101 347.104 146.101ZM347.104 134.858C343.736 134.858 340.876 137.456 340.876 140.969C340.876 144.526 343.736 147.12 347.104 147.12C350.444 147.12 353.308 144.526 353.308 140.969C353.308 137.456 350.444 134.858 347.104 134.858ZM345.428 76.9458H358.928V77.0733L355.908 80.7364V117.697H348.191L327.553 86.9066V113.904L331.538 117.567V117.697H317.971V117.567L320.996 113.904V80.7364L317.971 77.0733V76.9458H332.824L349.35 102.333V80.7364L345.428 77.0733V76.9458ZM402 105.934C402 114.739 393.254 119.108 382.838 119.108C378.019 119.108 372.874 118.402 368.628 116.473L368.179 104.262H368.309L374.544 111.973C376.859 112.682 379.56 113.129 382.581 113.129C386.183 113.129 391.584 112.232 391.584 107.991C391.584 104.324 388.049 103.041 380.848 101.05C371.523 98.4771 367.215 94.7486 367.215 88.5163C367.215 78.8727 376.539 75.5291 386.249 75.5291C390.876 75.5291 394.925 76.3023 398.786 77.7777L399.299 89.2873H399.171L392.999 82.6001C390.749 81.8923 388.241 81.5717 385.541 81.5717C382.326 81.5717 377.244 82.3461 377.244 86.2665C377.244 89.6722 379.495 90.573 386.889 92.6298C396.278 95.2645 402 97.6418 402 105.934ZM110.259 85.2348L115.078 101.435H104.598L110.259 85.2348ZM103.442 117.567L100.29 113.904L102.478 107.541H116.882L118.746 113.904L115.401 117.567V117.697H132.825V117.567L129.481 113.904L117.008 76.9458H103.184V77.0733L105.565 80.7364L93.0269 113.904L89.8097 117.567V117.697H103.442V117.567Z" fill="white"/>
</svg>
